<svg width="202" height="187" viewBox="0 0 202 187" fill="none" xmlns="http://www.w3.org/2000/svg">
<g id="&#240;&#159;&#166;&#134; icon &#34;recipe keeper&#34;">
<g id="Group">
<path id="Vector" d="M101.037 92.9223H3C3 141.758 64.4561 183.749 64.4561 183.749H101.037" stroke="#B8DBA8" stroke-width="5.29931" stroke-linecap="round" stroke-linejoin="round"/>
<path id="Vector_2" d="M31.5332 104.079C31.5332 140.074 71.9553 166.633 71.9553 166.633" stroke="#B8DBA8" stroke-width="5.29931" stroke-linecap="round" stroke-linejoin="round"/>
<path id="Vector_3" d="M101.037 92.9223H199.074C199.074 141.758 137.618 183.748 137.618 183.748H101.037" stroke="#B8DBA8" stroke-width="5.29931" stroke-linecap="round" stroke-linejoin="round"/>
<path id="Vector_4" d="M48.5425 92.9222C41.4091 66.218 89.104 47.8602 131.903 42.1904L136.086 34.4842L152.959 54.9925L143.699 56.5012C139.172 71.3853 116.489 92.9222 116.489 92.9222" stroke="#B8DBA8" stroke-width="5.29931" stroke-linecap="round" stroke-linejoin="round"/>
<path id="Vector_5" d="M56.042 92.9222C57.5698 79.1726 73.5128 63.7029 134.326 45.1284" stroke="#B8DBA8" stroke-width="5.29931" stroke-linecap="round" stroke-linejoin="round"/>
<path id="Vector_6" d="M135.897 47.0354C112.896 58.5582 86.0835 71.7964 67.29 92.922" stroke="#B8DBA8" stroke-width="5.29931" stroke-linecap="round" stroke-linejoin="round"/>
<path id="Vector_7" d="M140.386 52.4805C116.489 84.9435 101.037 92.9221 101.037 92.9221" stroke="#B8DBA8" stroke-width="5.29931" stroke-linecap="round" stroke-linejoin="round"/>
<path id="Vector_8" d="M87.8145 92.9221C102.226 84.4978 138.103 49.7106 138.103 49.7106" stroke="#B8DBA8" stroke-width="5.29931" stroke-linecap="round" stroke-linejoin="round"/>
<path id="Vector_9" d="M149.138 50.4483L192.334 15.4427C195.316 13.0257 195.775 8.649 193.358 5.66709C190.941 2.68464 186.564 2.22625 183.582 4.64326L140.386 39.6488" stroke="#B8DBA8" stroke-width="5.29931" stroke-linecap="round" stroke-linejoin="round"/>
<path id="Vector_10" d="M131.904 42.1905L143.699 56.5013" stroke="#B8DBA8" stroke-width="5.29931" stroke-linecap="round" stroke-linejoin="round"/>
</g>
</g>
</svg>
