<svg width="99" height="108" viewBox="0 0 99 108" fill="none" xmlns="http://www.w3.org/2000/svg">
<g id="&#240;&#159;&#166;&#134; icon &#34;document-layout-left&#34;">
<path id="Vector" d="M6.6859 53.5794H46.8013C48.5745 53.5794 50.2751 52.875 51.5289 51.6212C52.7828 50.3673 53.4872 48.6668 53.4872 46.8936V6.77829C53.4872 5.00508 52.7828 3.3045 51.5289 2.05066C50.2751 0.796812 48.5745 0.0924072 46.8013 0.0924072H6.6859C4.91269 0.0924072 3.2121 0.796812 1.95825 2.05066C0.704405 3.3045 0 5.00508 0 6.77829V46.8936C0 48.6668 0.704405 50.3673 1.95825 51.6212C3.2121 52.875 4.91269 53.5794 6.6859 53.5794ZM13.3718 13.4642H40.1154V40.2077H13.3718V13.4642ZM73.5449 26.8359H127.032C128.805 26.8359 130.506 26.1315 131.76 24.8777C133.014 23.6238 133.718 21.9232 133.718 20.15C133.718 18.3768 133.014 16.6763 131.76 15.4224C130.506 14.1686 128.805 13.4642 127.032 13.4642H73.5449C71.7717 13.4642 70.0711 14.1686 68.8172 15.4224C67.5634 16.6763 66.859 18.3768 66.859 20.15C66.859 21.9232 67.5634 23.6238 68.8172 24.8777C70.0711 26.1315 71.7717 26.8359 73.5449 26.8359ZM73.5449 93.6947H6.6859C4.91269 93.6947 3.2121 94.3991 1.95825 95.6529C0.704405 96.9068 0 98.6074 0 100.381C0 102.154 0.704405 103.854 1.95825 105.108C3.2121 106.362 4.91269 107.066 6.6859 107.066H73.5449C75.3181 107.066 77.0187 106.362 78.2725 105.108C79.5264 103.854 80.2308 102.154 80.2308 100.381C80.2308 98.6074 79.5264 96.9068 78.2725 95.6529C77.0187 94.3991 75.3181 93.6947 73.5449 93.6947ZM127.032 66.9512H6.6859C4.91269 66.9512 3.2121 67.6556 1.95825 68.9094C0.704405 70.1633 0 71.8639 0 73.6371C0 75.4103 0.704405 77.1109 1.95825 78.3647C3.2121 79.6185 4.91269 80.3229 6.6859 80.3229H127.032C128.805 80.3229 130.506 79.6185 131.76 78.3647C133.014 77.1109 133.718 75.4103 133.718 73.6371C133.718 71.8639 133.014 70.1633 131.76 68.9094C130.506 67.6556 128.805 66.9512 127.032 66.9512ZM127.032 40.2077H73.5449C71.7717 40.2077 70.0711 40.9121 68.8172 42.1659C67.5634 43.4198 66.859 45.1203 66.859 46.8936C66.859 48.6668 67.5634 50.3673 68.8172 51.6212C70.0711 52.875 71.7717 53.5794 73.5449 53.5794H127.032C128.805 53.5794 130.506 52.875 131.76 51.6212C133.014 50.3673 133.718 48.6668 133.718 46.8936C133.718 45.1203 133.014 43.4198 131.76 42.1659C130.506 40.9121 128.805 40.2077 127.032 40.2077Z" fill="#8CCEE8"/>
</g>
</svg>
