<svg width="53" height="36" viewBox="0 0 53 36" fill="none" xmlns="http://www.w3.org/2000/svg">
<path d="M49.9833 2.69251C46.855 -0.0537512 40.973 -0.189022 35.3893 3.72687C30.4257 7.20779 21.524 17.2595 20.9165 17.9563C20.3089 18.6532 20.18 18.5299 19.587 17.9856C18.9941 17.4413 16.1235 14.8798 14.9337 13.5245C9.95722 7.8565 2.23408 12.1443 3.58537 12.6747C5.34556 13.3656 8.71495 15.4987 8.17741 15.5147C3.56262 15.6517 -1.09823 18.6693 0.229903 19.2167C2.32851 20.0817 3.83557 21.0991 5.44984 22.6528C8.8129 25.8898 12.1911 29.1123 15.539 32.3637C20.4634 37.1462 20.6739 37.0928 25.0229 32.3637C31.3633 26.261 38.7501 18.7956 45.4924 12.1696C47.0946 10.5951 49.327 8.49043 51.9004 8.06692C54.0852 7.70735 47.2971 4.48443 44.7462 4.84655C46.9503 2.30675 51.7912 4.27965 49.9833 2.69251Z" fill="#00A789"/>
</svg>
