<svg width="106" height="39" viewBox="0 0 106 39" fill="none" xmlns="http://www.w3.org/2000/svg">
<path d="M41.1737 37.7297V23.0515H47.3712C47.5139 23.0515 47.7042 23.0582 47.9421 23.0718C48.1867 23.0786 48.4042 23.099 48.5944 23.133C49.471 23.2689 50.188 23.5577 50.7452 23.9994C51.3092 24.4411 51.7238 24.9984 51.9888 25.6711C52.2538 26.3371 52.3863 27.0812 52.3863 27.9034C52.3863 29.1334 52.0805 30.1867 51.4689 31.0633C50.8573 31.9332 49.8992 32.47 48.5944 32.6739L47.3712 32.7554H43.9463V37.7297H41.1737ZM49.4507 37.7297L46.5558 31.7565L49.4099 31.2061L52.5902 37.7297H49.4507ZM43.9463 30.1663H47.2489C47.3916 30.1663 47.5479 30.1595 47.7178 30.146C47.8877 30.1324 48.044 30.1052 48.1867 30.0644C48.5604 29.9625 48.8493 29.7926 49.0531 29.5547C49.257 29.3101 49.3963 29.0417 49.471 28.7495C49.5526 28.4505 49.5934 28.1685 49.5934 27.9034C49.5934 27.6384 49.5526 27.3598 49.471 27.0676C49.3963 26.7686 49.257 26.5002 49.0531 26.2623C48.8493 26.0177 48.5604 25.8444 48.1867 25.7425C48.044 25.7017 47.8877 25.6745 47.7178 25.6609C47.5479 25.6473 47.3916 25.6405 47.2489 25.6405H43.9463V30.1663ZM59.785 38.0355C58.6774 38.0355 57.7056 37.7875 56.8698 37.2914C56.0339 36.7954 55.3815 36.1124 54.9127 35.2426C54.4506 34.366 54.2195 33.3602 54.2195 32.2254C54.2195 31.0769 54.4574 30.0678 54.933 29.198C55.4087 28.3214 56.0645 27.6384 56.9003 27.1491C57.7362 26.6599 58.6977 26.4152 59.785 26.4152C60.8927 26.4152 61.8645 26.6633 62.7003 27.1593C63.5429 27.6554 64.1987 28.3418 64.6676 29.2184C65.1365 30.0882 65.3709 31.0905 65.3709 32.2254C65.3709 33.367 65.1331 34.3762 64.6574 35.2528C64.1885 36.1226 63.5327 36.8056 62.6901 37.3016C61.8543 37.7909 60.8859 38.0355 59.785 38.0355ZM59.785 35.4464C60.6752 35.4464 61.3378 35.1474 61.7727 34.5494C62.2144 33.9446 62.4353 33.17 62.4353 32.2254C62.4353 31.2468 62.211 30.4653 61.7625 29.8809C61.3208 29.2965 60.6616 29.0043 59.785 29.0043C59.1802 29.0043 58.6842 29.1402 58.2968 29.412C57.9095 29.6839 57.6207 30.061 57.4304 30.5435C57.2469 31.026 57.1552 31.5866 57.1552 32.2254C57.1552 33.2107 57.376 33.9956 57.8177 34.58C58.2662 35.1576 58.922 35.4464 59.785 35.4464ZM74.2177 37.7297C73.4566 37.8724 72.7091 37.9336 71.9752 37.9132C71.2481 37.8996 70.5957 37.7739 70.0181 37.5361C69.4473 37.2914 69.0124 36.9007 68.7134 36.3638C68.4415 35.861 68.2988 35.3513 68.2852 34.8349C68.2717 34.3116 68.2649 33.7204 68.2649 33.0612V23.663H71.0374V32.8981C71.0374 33.3263 71.0408 33.7136 71.0476 34.0602C71.0612 34.3999 71.1326 34.6718 71.2617 34.8756C71.5063 35.263 71.8971 35.4736 72.4339 35.5076C72.9707 35.5416 73.5654 35.5144 74.2177 35.4261V37.7297ZM66.3893 28.8616V26.721H74.2177V28.8616H66.3893ZM76.8748 25.192V22.7457H79.6474V25.192H76.8748ZM76.8748 37.7297V26.721H79.6474V37.7297H76.8748ZM90.2055 37.7297V32.5312C90.2055 32.2797 90.1919 31.9604 90.1647 31.573C90.1376 31.1789 90.0526 30.7847 89.9099 30.3906C89.7672 29.9965 89.5328 29.6669 89.2066 29.4018C88.8872 29.1368 88.4319 29.0043 87.8407 29.0043C87.6028 29.0043 87.348 29.0417 87.0762 29.1164C86.8044 29.1912 86.5495 29.3373 86.3117 29.5547C86.0739 29.7654 85.8768 30.078 85.7205 30.4925C85.571 30.9071 85.4962 31.4575 85.4962 32.1438L83.9061 31.3895C83.9061 30.5197 84.0828 29.7042 84.4361 28.9432C84.7895 28.1821 85.3196 27.5671 86.0263 27.0982C86.7398 26.6293 87.6368 26.3948 88.7173 26.3948C89.5803 26.3948 90.2837 26.5409 90.8273 26.8331C91.371 27.1254 91.7923 27.4957 92.0913 27.9442C92.3971 28.3927 92.6145 28.8616 92.7436 29.3509C92.8728 29.8334 92.9509 30.2751 92.9781 30.676C93.0053 31.0769 93.0189 31.3691 93.0189 31.5526V37.7297H90.2055ZM82.6829 37.7297V26.721H85.1497V30.3702H85.4962V37.7297H82.6829ZM100.582 38.0355C99.4537 38.0355 98.4582 37.7943 97.5952 37.3118C96.7389 36.8225 96.0662 36.1532 95.5769 35.3037C95.0944 34.4475 94.8532 33.469 94.8532 32.3681C94.8532 31.1653 95.091 30.1188 95.5667 29.2286C96.0424 28.3384 96.6981 27.6486 97.534 27.1593C98.3698 26.6633 99.3314 26.4152 100.419 26.4152C101.574 26.4152 102.556 26.687 103.365 27.2307C104.173 27.7743 104.771 28.5388 105.159 29.5242C105.546 30.5095 105.682 31.6681 105.566 33.0001H102.824V31.9807C102.824 30.8595 102.644 30.0542 102.284 29.5649C101.931 29.0689 101.35 28.8208 100.541 28.8208C99.5964 28.8208 98.8999 29.1096 98.4514 29.6873C98.0097 30.2581 97.7888 31.1041 97.7888 32.2254C97.7888 33.2515 98.0097 34.0466 98.4514 34.6106C98.8999 35.1678 99.5557 35.4464 100.419 35.4464C100.962 35.4464 101.428 35.3275 101.815 35.0897C102.203 34.8518 102.498 34.5087 102.702 34.0602L105.475 34.8552C105.06 35.861 104.404 36.6425 103.507 37.1997C102.617 37.7569 101.642 38.0355 100.582 38.0355ZM96.9326 33.0001V30.941H104.231V33.0001H96.9326Z" fill="#00A789"/>
<path d="M49.9833 2.69251C46.855 -0.0537512 40.973 -0.189022 35.3893 3.72687C30.4257 7.20779 21.524 17.2595 20.9165 17.9563C20.3089 18.6532 20.18 18.5299 19.587 17.9856C18.9941 17.4413 16.1235 14.8798 14.9337 13.5245C9.95722 7.8565 2.23408 12.1443 3.58537 12.6747C5.34556 13.3656 8.71495 15.4987 8.17741 15.5147C3.56262 15.6517 -1.09823 18.6693 0.229903 19.2167C2.32851 20.0817 3.83557 21.0991 5.44984 22.6528C8.8129 25.8898 12.1911 29.1123 15.539 32.3637C20.4634 37.1462 20.6739 37.0928 25.0229 32.3637C31.3633 26.261 38.7501 18.7956 45.4924 12.1696C47.0946 10.5951 49.327 8.49043 51.9004 8.06692C54.0852 7.70735 47.2971 4.48443 44.7462 4.84655C46.9503 2.30675 51.7912 4.27965 49.9833 2.69251Z" fill="#00A789"/>
</svg>