<svg width="18" height="17" viewBox="0 0 18 17" fill="none" xmlns="http://www.w3.org/2000/svg">
<g id="clock-regular 1" clip-path="url(#clip0_417_88)">
<path id="Vector" d="M15.5003 8.68746C15.5031 10.4114 14.821 12.0658 13.604 13.2867C12.387 14.5077 10.7348 15.1952 9.01088 15.198C7.28697 15.2008 5.63256 14.5187 4.4116 13.3017C3.19063 12.0847 2.50312 10.4325 2.50032 8.70861C2.49751 6.9847 3.17964 5.33029 4.39664 4.10932C5.61364 2.88836 7.26583 2.20085 8.98973 2.19804C10.7136 2.19524 12.3681 2.87737 13.589 4.09437C14.81 5.31137 15.4975 6.96356 15.5003 8.68746ZM1.00032 8.71105C1.00377 10.8328 1.84993 12.8662 3.35266 14.3641C4.85539 15.8619 6.89159 16.7015 9.01332 16.698C11.135 16.6946 13.1685 15.8484 14.6664 14.3457C16.1642 12.843 17.0037 10.8068 17.0003 8.68502C16.9968 6.56329 16.1507 4.52984 14.648 3.03199C13.1452 1.53414 11.109 0.694595 8.98729 0.698047C6.86557 0.701498 4.83211 1.54766 3.33426 3.05039C1.83641 4.55312 0.996866 6.58932 1.00032 8.71105ZM8.2434 4.44926L8.25031 8.69926C8.25071 8.94926 8.3761 9.18343 8.5857 9.32371L11.5889 11.3188C11.9331 11.5495 12.3985 11.455 12.6292 11.1078C12.8599 10.7605 12.7654 10.2982 12.4182 10.0675L9.74966 8.29682L9.74339 4.44682C9.74272 4.0312 9.4078 3.69737 8.99217 3.69804C8.57655 3.69872 8.24272 4.03364 8.2434 4.44926Z" fill="#A5A5A5"/>
</g>
<defs>
<clipPath id="clip0_417_88">
<rect width="16" height="16" fill="white" transform="translate(0.987305 0.71106) rotate(-0.0931986)"/>
</clipPath>
</defs>
</svg>
