<svg width="91" height="90" viewBox="0 0 91 90" fill="none" xmlns="http://www.w3.org/2000/svg">
<g id="Image 272">
<g id="Group">
<g id="Group_2">
<g id="Group_3">
<g id="Group_4">
<g id="Group_5">
<g id="Group_6">
<g id="Layer_1">
<path id="Vector" d="M72.4925 8.8108C72.7485 8.9068 73.0365 9.0348 73.2925 9.1308C74.9245 9.8668 75.7565 11.7228 75.2125 13.4508C74.6685 15.1468 72.9085 16.2348 71.1805 15.8828C70.7005 15.7868 70.4125 15.8828 70.0925 16.2668C69.3245 17.2588 68.2045 18.0908 67.8205 19.1788C67.4045 20.2668 67.6925 21.6428 67.6925 22.8588C67.6925 26.6668 67.6605 30.4748 67.7245 34.2828C67.7245 34.7308 67.9485 35.2428 68.1725 35.6588C68.6845 36.5548 69.2925 37.3868 69.8045 38.2828C70.2845 39.1148 70.1565 39.7548 69.5165 40.1388C68.8765 40.5228 68.2045 40.2988 67.7565 39.4668C66.0285 36.3628 63.6925 33.8988 60.6845 32.0108C49.0045 24.6508 33.1645 31.4028 30.3805 44.8748C30.2845 45.2908 30.2205 45.7388 29.9645 46.0588C29.5485 46.6348 28.9085 46.6668 28.3325 46.2508C25.9965 44.5228 23.4045 43.6268 20.5245 43.5948C19.7885 43.5948 19.3085 43.0188 19.3085 42.3788C19.3405 41.7388 19.8525 41.1948 20.5885 41.2268C21.7725 41.2908 22.9565 41.4188 24.2045 41.5148C24.2045 41.2908 24.2045 41.0348 24.2045 40.7788C24.2045 33.8348 24.2045 26.8588 24.1725 19.9148C24.1725 19.4988 23.9805 18.9868 23.7245 18.6348C23.0845 17.7708 22.3485 16.9388 21.6445 16.1388C21.4845 15.9788 21.1645 15.8188 20.9405 15.8508C18.8285 16.1388 17.1005 15.1468 16.6205 13.2908C16.1405 11.4028 17.1325 9.7068 19.1165 8.9388C19.1805 8.9068 19.2445 8.8428 19.3085 8.8108C19.8525 8.8108 20.3645 8.8108 20.9085 8.8108C20.9725 8.8428 21.0045 8.9388 21.0685 8.9388C23.3405 9.8348 24.0765 11.4988 23.3405 13.8348C23.2765 14.0588 23.4045 14.4428 23.5645 14.6348C24.3645 15.6268 25.2285 16.5548 25.9645 17.5788C26.2845 18.0268 26.5405 18.6668 26.5725 19.2108C26.6045 23.6908 26.6045 28.1388 26.6045 32.6188C26.6045 35.6588 26.6045 38.6988 26.6045 41.7388C26.6045 41.9948 26.6685 42.3788 26.8285 42.4748C27.2765 42.7948 27.7885 42.9868 28.2685 43.2108C28.3325 43.0508 28.3965 42.9548 28.4285 42.8588C29.4205 39.4348 31.0845 36.4268 33.4845 33.8028C33.7085 33.5468 33.8365 33.1308 33.8365 32.8108C33.8685 28.6828 33.8365 24.5548 33.8685 20.4268C33.8685 19.9148 33.7085 19.6588 33.2605 19.3708C31.8205 18.5708 31.1805 16.9068 31.6285 15.3388C32.0445 13.8348 33.4845 12.7468 35.0525 12.7148C36.6525 12.7148 38.1245 13.8348 38.5405 15.3388C38.9565 16.9068 38.3165 18.5388 36.8445 19.3388C36.3965 19.5948 36.2685 19.8508 36.2685 20.3308C36.3005 23.6908 36.2685 27.0508 36.2685 30.4108C36.2685 30.6348 36.3005 30.8268 36.3325 31.1148C36.4925 31.0508 36.5565 31.0188 36.6205 30.9548C38.9565 29.2268 41.4845 27.9788 44.3005 27.2748C44.8445 27.1468 44.8445 26.8268 44.8445 26.3788C44.8445 23.0508 44.8445 19.7228 44.8445 16.3628C44.8445 15.8508 44.7165 15.5628 44.2365 15.3068C42.9885 14.6028 42.3805 13.4508 42.4765 12.0108C42.5725 10.5708 43.3405 9.5468 44.6845 8.9708C44.8765 8.8748 45.0365 8.7788 45.2285 8.7148C45.7725 8.7148 46.2845 8.7148 46.8285 8.7148C46.9245 8.7788 47.0525 8.8428 47.1485 8.9068C48.5565 9.4508 49.4205 10.4428 49.5485 11.9788C49.6765 13.5148 49.0045 14.6668 47.6925 15.4668C47.4365 15.6268 47.2445 16.0428 47.2445 16.3308C47.2125 19.5948 47.2125 22.8268 47.2125 26.0908C47.2125 26.2828 47.2445 26.4428 47.2445 26.4108C50.1245 26.6028 52.9085 26.7628 55.7565 26.9548C55.7565 24.7148 55.7565 22.3788 55.7245 20.0428C55.7245 19.8508 55.4365 19.5948 55.2125 19.4348C53.7405 18.5388 53.0685 16.9388 53.4845 15.3708C53.9005 13.8348 55.3725 12.7148 56.9725 12.7468C58.5405 12.7788 59.9485 13.8668 60.3645 15.3708C60.8125 16.9388 60.1405 18.6028 58.6365 19.4348C58.2205 19.6588 58.0925 19.9148 58.0925 20.3628C58.1245 22.6988 58.1245 25.0028 58.0925 27.3388C58.0925 27.8508 58.2525 28.0748 58.7005 28.2668C60.8765 29.1308 62.8285 30.3788 64.6205 31.8828C64.7805 32.0108 64.9725 32.1388 65.2605 32.3308C65.2605 31.8828 65.2605 31.5948 65.2605 31.3068C65.2605 27.2428 65.2285 23.1468 65.2925 19.0828C65.2925 18.5708 65.5485 17.9628 65.8685 17.5148C66.6045 16.5228 67.4365 15.5948 68.2685 14.6668C68.5885 14.3148 68.6525 14.0268 68.4605 13.5468C67.9485 12.2668 68.1405 11.0188 69.1005 9.9948C69.6125 9.4508 70.3805 9.1308 71.0525 8.7148C71.5325 8.8108 72.0125 8.8108 72.4925 8.8108ZM71.8205 13.5468C72.4605 13.5468 72.9725 13.0028 72.9725 12.3948C72.9725 11.7228 72.4285 11.1788 71.7885 11.1788C71.1485 11.1788 70.6365 11.7228 70.6045 12.3308C70.6045 13.0028 71.1805 13.5788 71.8205 13.5468ZM21.2605 12.3628C21.2605 11.7228 20.7485 11.2108 20.1405 11.1788C19.4685 11.1468 18.9245 11.7228 18.9245 12.3628C18.9245 13.0028 19.5005 13.5788 20.1405 13.5468C20.7485 13.5468 21.2605 13.0028 21.2605 12.3628ZM47.1485 12.3628C47.1485 11.7228 46.6365 11.2108 45.9965 11.2108C45.3245 11.2108 44.8125 11.7548 44.8125 12.4268C44.8125 13.0668 45.3565 13.5788 45.9645 13.5788C46.6365 13.5788 47.1485 13.0028 47.1485 12.3628ZM33.8685 16.3948C33.8685 17.0348 34.3805 17.5468 35.0205 17.5468C35.6925 17.5468 36.2365 17.0348 36.2045 16.3628C36.2045 15.7548 35.6605 15.2108 35.0525 15.2108C34.4125 15.1788 33.8365 15.7228 33.8685 16.3948ZM55.7565 16.3628C55.7565 17.0028 56.2365 17.5148 56.8765 17.5468C57.5485 17.5788 58.0925 17.0668 58.0925 16.3948C58.0925 15.7228 57.5485 15.1788 56.9085 15.1788C56.3005 15.2108 55.7565 15.7228 55.7565 16.3628Z" fill="#3158E2"/>
</g>
<g id="Layer_1_2">
<path id="Vector_2" d="M86.3768 61.1196C86.2488 61.6636 86.1529 62.2076 86.0249 62.7196C84.7769 67.6156 80.3609 71.1676 75.2729 71.2956C73.9289 71.3276 72.5849 71.3276 71.2409 71.2956C70.3129 71.2956 69.8649 70.8796 69.8329 70.1436C69.8329 69.3756 70.3129 68.9276 71.2729 68.9276C72.5529 68.8956 73.8649 68.9596 75.1449 68.9276C80.1049 68.7996 84.0088 64.7356 83.9768 59.7756C83.9448 53.7596 77.9609 49.4076 72.2009 51.1996C71.9769 51.2636 71.7529 51.3596 71.5289 51.4236C70.5689 51.6796 69.9609 51.1676 69.8969 50.1756C69.7689 48.2236 69.6089 46.3036 69.4489 44.3516C69.3849 43.6476 69.7369 43.0396 70.3769 42.9116C71.0169 42.7836 71.6569 43.1676 71.7529 43.8716C72.0089 45.4396 72.2329 47.0076 72.4569 48.5756C73.8009 48.5756 75.2408 48.4156 76.6488 48.6076C81.4488 49.2156 85.4168 53.1516 86.2168 57.9196C86.2488 58.1436 86.3128 58.3676 86.3768 58.5916C86.3768 59.4236 86.3768 60.2876 86.3768 61.1196Z" fill="#3158E2"/>
</g>
<g id="Layer_1_3">
<path id="Vector_3" d="M5.58398 55.2312C5.83998 50.0472 8.59198 45.4072 14.096 42.5272C15.024 42.0472 15.664 42.1752 16.016 42.8472C16.4 43.5192 16.08 44.1592 15.152 44.6712C10.672 47.0392 8.14398 50.7512 8.01598 55.8392C7.88798 60.8952 10.192 64.7352 14.512 67.3272C16.304 68.3832 18.256 68.9272 20.336 68.9592C20.688 68.9592 21.04 68.9912 21.328 69.1192C21.872 69.3752 22.064 69.8872 21.936 70.4312C21.808 71.0072 21.36 71.3912 20.784 71.2952C19.152 71.0712 17.456 70.9752 15.888 70.4632C9.74398 68.4792 5.58398 62.6232 5.58398 55.2312Z" fill="#3158E2"/>
</g>
<g id="Layer_1_4">
<path id="Vector_4" d="M66.8609 67.7876V66.9876C66.8609 65.3876 66.0609 63.9476 64.8769 63.0516C65.9969 62.1556 66.7009 60.7796 66.7009 59.2756V58.4756C66.7009 55.7876 64.5249 53.6116 61.8369 53.6116H30.7009C28.0129 53.6116 25.8369 55.7876 25.8369 58.4756V59.2756C25.8369 60.8756 26.6369 62.3156 27.8209 63.2116C26.7009 64.1076 25.9969 65.4836 25.9969 66.9876V67.7876C25.9969 69.3556 26.7329 70.7636 27.9169 71.6596C26.7649 72.5556 25.9969 73.9316 25.9969 75.5316V76.3316C25.9969 79.0196 28.1729 81.1956 30.8609 81.1956H61.9649C64.6529 81.1956 66.8289 79.0196 66.8289 76.3316V75.5316C66.8289 73.9636 66.0929 72.5556 64.9089 71.6596C66.1249 70.7316 66.8609 69.3556 66.8609 67.7876ZM27.7569 59.2436V58.4436C27.7569 56.8116 29.0689 55.4996 30.7009 55.4996H61.8049C63.4369 55.4996 64.7489 56.8116 64.7489 58.4436V59.2436C64.7489 60.6516 63.7889 61.8036 62.4769 62.1236C62.3169 62.0916 62.1569 62.0916 61.9649 62.0916H30.8929C30.6369 62.0916 30.4129 62.1236 30.1889 62.1556C28.7809 61.8996 27.7569 60.7156 27.7569 59.2436ZM64.9409 75.4996V76.2996C64.9409 77.9316 63.6289 79.2436 61.9969 79.2436H30.8929C29.2609 79.2436 27.9489 77.9316 27.9489 76.2996V75.4996C27.9489 74.0916 28.9409 72.9076 30.2849 72.6196C30.4769 72.6516 30.7009 72.6516 30.8929 72.6516H61.9969C62.2209 72.6516 62.4129 72.6196 62.6049 72.6196C63.9489 72.8756 64.9409 74.0916 64.9409 75.4996ZM61.9969 70.6036H30.8929C30.6689 70.6036 30.4769 70.6356 30.2849 70.6356C28.9409 70.3476 27.9489 69.1636 27.9489 67.7556V66.9876C27.9489 65.5796 28.9089 64.4276 30.2209 64.1076C30.3809 64.1396 30.5409 64.1396 30.7329 64.1396H61.8369C62.0929 64.1396 62.3169 64.1076 62.5409 64.0756C63.9169 64.3316 64.9729 65.5476 64.9729 66.9876V67.7876C64.9729 69.1956 63.9809 70.3796 62.6369 70.6676C62.4129 70.6356 62.2209 70.6036 61.9969 70.6036Z" fill="#3158E2"/>
</g>
<g id="Layer_1_5">
<path id="Vector_5" d="M32.9971 59.7936H60.1011C60.6451 59.7936 61.0611 59.3776 61.0611 58.8336C61.0611 58.2896 60.6451 57.8736 60.1011 57.8736H32.9971C32.4531 57.8736 32.0371 58.2896 32.0371 58.8336C32.0371 59.3456 32.4531 59.7936 32.9971 59.7936Z" fill="#3158E2"/>
</g>
<g id="Layer_1_6">
<path id="Vector_6" d="M60.1011 74.9836H32.9971C32.4531 74.9836 32.0371 75.3996 32.0371 75.9436C32.0371 76.4876 32.4531 76.9036 32.9971 76.9036H60.1011C60.6451 76.9036 61.0611 76.4876 61.0611 75.9436C61.0611 75.3996 60.6131 74.9836 60.1011 74.9836Z" fill="#3158E2"/>
</g>
<g id="Layer_1_7">
<path id="Vector_7" d="M59.9991 66.4136H58.0791C57.5351 66.4136 57.1191 66.8296 57.1191 67.3736C57.1191 67.9176 57.5351 68.3336 58.0791 68.3336H59.9991C60.5431 68.3336 60.9591 67.9176 60.9591 67.3736C60.9591 66.8616 60.5111 66.4136 59.9991 66.4136Z" fill="#3158E2"/>
</g>
<g id="Layer_1_8">
<path id="Vector_8" d="M35.0196 66.4136H33.0996C32.5556 66.4136 32.1396 66.8296 32.1396 67.3736C32.1396 67.9176 32.5556 68.3336 33.0996 68.3336H35.0196C35.5636 68.3336 35.9796 67.9176 35.9796 67.3736C35.9796 66.8616 35.5316 66.4136 35.0196 66.4136Z" fill="#3158E2"/>
</g>
<g id="Layer_1_9">
<path id="Vector_9" d="M48.203 66.4136H44.875C44.331 66.4136 43.915 66.8296 43.915 67.3736C43.915 67.9176 44.331 68.3336 44.875 68.3336H48.203C48.747 68.3336 49.163 67.9176 49.163 67.3736C49.163 66.8616 48.747 66.4136 48.203 66.4136Z" fill="#3158E2"/>
</g>
<g id="Layer_1_10">
<path id="Vector_10" d="M41.623 66.4136H38.295C37.751 66.4136 37.335 66.8296 37.335 67.3736C37.335 67.9176 37.751 68.3336 38.295 68.3336H41.623C42.167 68.3336 42.583 67.9176 42.583 67.3736C42.583 66.8616 42.135 66.4136 41.623 66.4136Z" fill="#3158E2"/>
</g>
<g id="Layer_1_11">
<path id="Vector_11" d="M54.8036 66.4136H51.4756C50.9316 66.4136 50.5156 66.8296 50.5156 67.3736C50.5156 67.9176 50.9316 68.3336 51.4756 68.3336H54.8036C55.3476 68.3336 55.7636 67.9176 55.7636 67.3736C55.7636 66.8616 55.3476 66.4136 54.8036 66.4136Z" fill="#3158E2"/>
</g>
</g>
</g>
</g>
</g>
</g>
</g>
</g>
</svg>
