<svg width="91" height="90" viewBox="0 0 91 90" fill="none" xmlns="http://www.w3.org/2000/svg">
<g id="Image 271">
<g id="Group">
<g id="Group_2">
<g id="Group_3">
<g id="Group_4">
<g id="Group_5">
<g id="Group_6">
<g id="Layer_1">
<path id="Vector" d="M41.9264 60.756C42.1824 60.404 42.3104 60.212 42.4384 60.052C46.3744 56.116 50.3104 52.148 54.2784 48.212C55.8464 46.644 57.7344 46.356 59.4944 47.412C61.5424 48.596 62.0544 51.476 60.5824 53.332C60.4224 53.556 60.2304 53.748 60.0384 53.94C55.0464 58.964 50.0224 63.956 44.9984 68.98C43.7504 70.228 42.2464 70.708 40.5504 70.1C39.9744 69.876 39.3984 69.524 38.9504 69.076C36.5184 66.708 34.1184 64.308 31.7504 61.908C29.6704 59.796 30.1504 56.564 32.7424 55.284C34.2144 54.548 35.7504 54.676 36.9984 55.764C38.5024 57.076 39.8784 58.58 41.3184 59.988C41.5424 60.148 41.6704 60.404 41.9264 60.756ZM42.0224 68.02C42.4704 67.7 42.9824 67.476 43.3344 67.092C48.2944 62.164 53.2544 57.204 58.2144 52.244C58.3424 52.116 58.5024 51.988 58.5984 51.828C59.3024 50.932 58.8864 49.684 57.7984 49.364C57.0624 49.14 56.5504 49.492 56.0384 49.972C51.7504 54.26 47.4624 58.548 43.1744 62.836C42.2464 63.764 41.6704 63.796 40.7424 62.868C39.0784 61.204 37.4144 59.508 35.7184 57.876C35.0144 57.172 34.0544 57.204 33.4464 57.844C32.8384 58.484 32.8384 59.412 33.5104 60.084C35.9424 62.516 38.3744 64.98 40.8384 67.38C41.0944 67.636 41.5424 67.764 42.0224 68.02Z" fill="#DF214A"/>
</g>
<g id="Layer_1_2">
<path id="Vector_2" d="M6.59961 68.3436C6.59961 48.8236 6.59961 29.3036 6.59961 9.7836C7.84761 6.4556 9.06361 5.6236 12.6156 5.6236C34.9836 5.6236 57.3836 5.6236 79.7516 5.6236C83.3036 5.6236 85.2876 7.5756 85.2876 11.1276C85.2876 29.7196 85.2556 48.3116 85.3196 66.9036C85.3196 69.8156 83.3996 72.5356 79.7516 72.4396C76.1356 72.3436 72.5196 72.4396 68.9356 72.4076C68.2956 72.4076 67.9436 72.5996 67.5596 73.1116C63.8476 78.2956 58.9516 81.8156 52.7756 83.4156C51.1436 83.8316 49.4796 84.0236 47.8156 84.3436C46.5996 84.3436 45.3516 84.3436 44.1356 84.3436C43.9436 84.3116 43.7516 84.2476 43.5276 84.2156C35.4636 83.3836 29.0636 79.6076 24.3276 73.0476C23.9756 72.5676 23.6556 72.3756 23.0796 72.3756C19.3356 72.4076 15.5916 72.4076 11.8796 72.3756C9.19161 72.3756 7.52761 71.0636 6.75961 68.5036C6.69561 68.4716 6.66361 68.4076 6.59961 68.3436ZM21.9916 69.3356C21.9276 69.1116 21.8956 68.9516 21.8316 68.8236C19.8476 64.4076 19.1116 59.7676 19.6556 54.9676C20.0396 51.5116 21.0316 48.2796 22.7276 45.2076C23.2076 44.3436 24.0716 44.0556 24.8716 44.4716C25.6396 44.8876 25.8636 45.7196 25.4796 46.5836C25.4476 46.6796 25.3836 46.7756 25.3516 46.8716C22.7596 51.7996 22.0556 56.9836 23.0796 62.4236C25.4796 75.1276 38.3436 83.5756 50.9836 80.6956C63.2076 77.9116 70.9196 66.6156 69.0636 54.1676C67.4316 43.2236 57.8316 34.7756 46.7596 34.4876C42.5676 34.3916 38.6316 35.2556 34.9196 37.2076C34.5036 37.4316 33.9916 37.5276 33.5436 37.4636C32.8716 37.3676 32.4876 36.8556 32.4236 36.1836C32.3276 35.3836 32.7436 34.9036 33.4156 34.5516C38.8236 31.7036 44.5196 30.7436 50.5356 31.7996C67.4956 34.8076 77.0636 52.7276 70.1836 68.5356C70.0876 68.7596 70.0236 68.9836 69.8956 69.2716C70.2476 69.3036 70.4716 69.3036 70.6956 69.3036C73.7676 69.3036 76.8396 69.3036 79.9116 69.3036C81.6396 69.3036 82.2476 68.6636 82.2476 66.9356C82.2476 53.2076 82.2476 39.4796 82.2476 25.7516C82.2476 25.4956 82.2476 25.2076 82.2476 24.9516C58.0236 24.9516 33.8636 24.9516 9.70361 24.9516C9.70361 25.2716 9.70361 25.5276 9.70361 25.7836C9.70361 39.5116 9.70361 53.2396 9.70361 66.9676C9.70361 68.6956 10.3436 69.3356 12.0716 69.3356C15.0796 69.3356 18.0556 69.3356 21.0636 69.3356C21.3196 69.3356 21.6396 69.3356 21.9916 69.3356ZM82.2156 21.7836C82.2156 18.1036 82.2156 14.5196 82.2156 10.9356C82.2156 9.3996 81.5116 8.6956 79.9436 8.6956C57.2876 8.6956 34.5996 8.6956 11.9436 8.6956C10.3436 8.6956 9.67161 9.3676 9.67161 10.9996C9.67161 14.3276 9.67161 17.6556 9.67161 20.9836C9.67161 21.2396 9.67161 21.4636 9.67161 21.7516C33.8956 21.7836 58.0236 21.7836 82.2156 21.7836Z" fill="#DF214A"/>
</g>
<g id="Layer_1_3">
<path id="Vector_3" d="M30.0097 40.3516C30.0097 41.2156 29.3377 41.8556 28.4737 41.8236C27.6417 41.8236 26.9697 41.1196 26.9697 40.3196C26.9697 39.4876 27.7377 38.7516 28.5697 38.7836C29.3697 38.8156 30.0097 39.4876 30.0097 40.3516Z" fill="#DF214A"/>
</g>
<g id="Layer_1_4">
<path id="Vector_4" d="M29.1084 13.9916C32.7564 13.9916 36.3724 13.9916 40.0204 13.9916C40.2764 13.9916 40.5324 13.9916 40.7884 14.0236C41.5244 14.0876 42.0684 14.6316 42.1324 15.3676C42.2284 16.1356 41.7804 16.8076 41.0444 16.9996C40.7564 17.0636 40.4364 17.0956 40.1484 17.0956C32.7884 17.0956 25.4604 17.0956 18.1004 17.0956C17.7804 17.0956 17.4924 17.0956 17.1724 16.9996C16.4364 16.8076 15.9564 16.1356 16.0204 15.3996C16.0844 14.6636 16.6604 14.0876 17.4284 14.0236C18.0044 13.9916 18.5484 13.9916 19.1244 13.9916C22.4524 13.9916 25.7804 13.9916 29.1084 13.9916Z" fill="#DF214A"/>
</g>
<g id="Layer_1_5">
<path id="Vector_5" d="M56.2999 15.4956C56.2999 14.6636 56.9719 14.0236 57.8039 14.0236C58.6679 14.0236 59.3719 14.7276 59.3399 15.5596C59.3079 16.3596 58.6039 17.0636 57.8039 17.0636C56.9719 17.0636 56.2679 16.3596 56.2999 15.4956Z" fill="#DF214A"/>
</g>
<g id="Layer_1_6">
<path id="Vector_6" d="M72.7432 15.4976C72.7432 14.6336 73.3832 13.9936 74.2472 13.9936C75.0792 13.9936 75.7832 14.6336 75.8152 15.4656C75.8472 16.2976 75.1112 17.0336 74.2472 17.0336C73.4152 17.0336 72.7432 16.3616 72.7432 15.4976Z" fill="#DF214A"/>
</g>
<g id="Layer_1_7">
<path id="Vector_7" d="M64.5234 15.5296C64.5234 14.6656 65.1314 14.0256 65.9954 13.9936C66.8594 13.9616 67.5954 14.6336 67.5954 15.4976C67.5954 16.3296 66.8594 17.0656 66.0274 17.0336C65.1954 17.0336 64.5234 16.3616 64.5234 15.5296Z" fill="#DF214A"/>
</g>
</g>
</g>
</g>
</g>
</g>
</g>
</g>
</svg>
