<svg width="91" height="90" viewBox="0 0 91 90" fill="none" xmlns="http://www.w3.org/2000/svg">
<g id="Image 270">
<g id="Group">
<g id="Group_2">
<g id="Group_3">
<g id="Group_4">
<g id="Group_5">
<g id="Group_6">
<g id="Layer_1">
<path id="Vector" d="M84.5248 76.9236C84.1408 77.4356 83.7888 77.9796 83.3408 78.4276C81.9328 79.8676 80.5248 81.2756 79.0848 82.6836C77.9328 83.8356 76.8448 83.8356 75.6928 82.6836C70.8608 77.8516 65.9968 72.9876 61.1648 68.1556C60.0128 67.0036 59.9488 66.1716 60.8448 64.9236C59.5008 63.6116 58.1888 62.2676 56.8128 60.8916C52.9408 63.9636 48.3968 66.0116 43.3088 66.9716C43.3088 69.2116 43.3088 71.4196 43.3088 73.6276C43.3088 73.9156 43.3088 74.1716 43.3088 74.4596C43.2768 75.1636 42.8288 75.6116 42.1888 75.6116C41.5488 75.6116 41.1008 75.1636 41.0688 74.4596C41.0368 73.7876 41.0688 73.1156 41.0688 72.4116C41.0688 70.7476 41.0688 69.0516 41.0688 67.2916C40.3648 67.3236 39.6928 67.3876 38.9248 67.4516C38.9248 67.7396 38.9248 67.9956 38.9248 68.2516C38.9248 71.8996 38.9248 75.5796 38.9248 79.2276C38.9248 79.5156 38.9248 79.8356 38.8288 80.1236C38.6688 80.6676 38.2528 80.9556 37.7088 80.9236C37.1328 80.8916 36.7488 80.5396 36.6848 79.9316C36.6528 79.6756 36.6848 79.4196 36.6848 79.1636C36.6848 75.5476 36.6848 71.9316 36.6848 68.3156C36.6848 68.0276 36.6848 67.7716 36.6848 67.4196C35.9488 67.3556 35.2768 67.2916 34.4768 67.2276C34.4768 67.7396 34.4768 68.1556 34.4768 68.5716C34.4768 70.4916 34.4768 72.3796 34.4768 74.2996C34.4768 75.1316 34.0608 75.6116 33.3568 75.6116C32.6848 75.6116 32.2368 75.1316 32.2368 74.2996C32.2368 72.1236 32.2368 69.9476 32.2368 67.7396C32.2368 67.4516 32.2368 67.1956 32.2368 67.1316C29.7408 66.2356 27.2768 65.5636 25.0368 64.4756C15.2128 59.6436 9.32483 51.7716 7.82083 40.9236C5.64483 25.5636 15.3088 11.3556 30.2848 7.45159C31.9168 7.03559 33.6448 6.8756 35.3088 6.5876C35.5008 6.5556 35.6928 6.49159 35.8848 6.45959C37.2288 6.45959 38.6048 6.45959 39.9488 6.45959C41.4528 6.71559 42.9888 6.8756 44.4608 7.1956C49.6448 8.2836 54.1888 10.6516 58.1888 14.1716C58.8608 14.7476 58.9568 15.4196 58.5408 15.9316C58.0608 16.4756 57.3888 16.4756 56.6848 15.8356C52.8768 12.4756 48.5248 10.1716 43.5328 9.3076C31.9168 7.2596 22.4128 10.9716 15.2128 20.2836C11.1168 25.5316 9.45283 31.6436 9.70883 38.2676C10.1888 50.2676 18.6368 60.8916 30.2528 64.1236C46.1888 68.5716 62.4448 58.5876 65.6128 42.2996C67.1808 34.1716 65.4208 26.7156 60.4928 20.0276C60.3328 19.8036 60.1408 19.5796 60.0128 19.3556C59.6928 18.8116 59.7568 18.2996 60.2368 17.8836C60.7168 17.4676 61.3248 17.5316 61.7728 18.0116C62.0288 18.2996 62.2848 18.6516 62.5088 18.9716C65.2928 22.8116 67.1488 27.0356 67.9168 31.7076C68.0128 32.2196 68.2368 32.2836 68.6528 32.2836C70.8608 32.2836 73.0688 32.2836 75.2768 32.2836C75.6288 32.2836 76.0448 32.3156 76.2688 32.5076C76.5248 32.7636 76.7808 33.3076 76.6848 33.5956C76.5568 33.9476 76.1088 34.3956 75.7248 34.4596C75.0208 34.6196 74.2848 34.5236 73.5488 34.5236C71.8208 34.5236 70.0928 34.5236 68.3648 34.5236C68.3648 35.2596 68.3648 35.9316 68.3648 36.6996C68.6848 36.6996 68.9408 36.6996 69.2288 36.6996C72.9728 36.6996 76.7168 36.6996 80.4288 36.6996C80.6848 36.6996 80.9408 36.6676 81.1648 36.7316C81.7408 36.8596 82.0928 37.2116 82.0928 37.8196C82.0928 38.4276 81.7408 38.8116 81.1648 38.9396C80.9408 39.0036 80.7168 38.9716 80.4928 38.9716C76.7168 38.9716 72.9728 38.9716 69.1968 38.9716C68.9088 38.9716 68.6528 38.9716 68.3008 38.9716C68.2368 39.6756 68.1408 40.3156 68.0448 41.0836C68.3328 41.1156 68.5888 41.1156 68.8448 41.1476C70.8928 41.1476 72.9088 41.1476 74.9568 41.1476C75.1808 41.1476 75.4048 41.1476 75.6288 41.1796C76.3008 41.2756 76.7168 41.7236 76.7488 42.2996C76.7488 42.9076 76.2688 43.3876 75.5648 43.4196C74.1888 43.4516 72.8128 43.4196 71.4368 43.4196C70.2208 43.4196 68.9728 43.4196 67.6928 43.4196C66.6368 48.0596 64.6848 52.2196 61.7728 55.8996C63.1168 57.2436 64.4608 58.5876 65.7728 59.9316C67.2448 59.0036 67.9168 59.0676 69.1968 60.3476C72.4608 63.6116 75.7248 66.8756 78.9888 70.1396C79.1168 70.2676 79.2448 70.3956 79.3408 70.5236C79.7568 71.0356 79.7568 71.6436 79.3728 72.0916C78.9248 72.5716 78.2848 72.6036 77.7728 72.0916C77.0368 71.3876 76.3008 70.6516 75.5968 69.9156C75.0848 69.4036 74.6048 68.8596 74.1568 68.4116C72.5248 70.0436 70.9248 71.6116 69.4208 73.1156C72.0448 75.7396 74.7328 78.3956 77.4208 81.0836C78.8928 79.5796 80.4928 78.0116 82.1568 76.3156C81.8688 76.0916 81.5168 75.8356 81.2288 75.5156C80.7488 75.0036 80.7808 74.3316 81.2608 73.9156C81.7088 73.4996 82.3488 73.4996 82.8288 73.9476C83.4368 74.5556 83.9488 75.2596 84.5248 75.9316C84.5248 76.2196 84.5248 76.5716 84.5248 76.9236ZM69.0048 63.5476C68.4608 62.9396 67.9168 62.2996 67.5008 61.8196C65.9008 63.4196 64.3328 64.9876 62.8288 66.4916C63.3088 67.0036 63.8848 67.6116 64.3968 68.1556C65.9648 66.5876 67.5328 65.0196 69.0048 63.5476ZM72.1728 66.7796C71.7248 66.2356 71.2768 65.6596 70.8928 65.2116C69.2928 66.8116 67.7248 68.3476 66.1888 69.8836C66.6368 70.3316 67.1488 70.8436 67.6288 71.2916C69.1648 69.7556 70.7328 68.2196 72.1728 66.7796ZM60.2368 57.8516C59.7568 58.2996 59.2448 58.7796 58.8288 59.1956C60.1088 60.5076 61.3888 61.7876 62.6688 63.0356C63.1168 62.6196 63.6288 62.1396 64.0768 61.6916C62.7648 60.3796 61.4848 59.0996 60.2368 57.8516Z" fill="#E0D128"/>
</g>
<g id="Layer_1_2">
<path id="Vector_2" d="M44.0096 31.5616C44.3616 31.5616 44.6176 31.5616 44.9056 31.5616C46.8576 31.5616 48.8097 31.5616 50.7617 31.5616C52.4896 31.5616 53.0337 32.1056 53.0337 33.8656C53.0337 35.4976 53.0337 45.6736 53.0337 47.2736C53.0337 47.5296 53.0337 47.8176 53.0337 48.2016C53.5777 48.2016 54.0576 48.2016 54.5056 48.2016C55.1777 48.2336 55.5937 48.5856 55.6576 49.2576C55.7216 49.8976 55.2736 50.3456 54.5696 50.4416C54.2816 50.4736 54.0257 50.4736 53.7377 50.4736C43.4657 50.4736 33.2256 50.4736 22.9536 50.4736C22.6016 50.4736 22.2497 50.4736 21.8977 50.4096C21.2897 50.2816 21.0016 49.8656 21.0336 49.2576C21.0656 48.6816 21.3857 48.3296 21.9617 48.2336C22.1217 48.2016 22.2497 48.2016 22.4097 48.2016C23.6577 48.1696 23.6577 48.1696 23.6577 46.9536C23.6577 43.4976 23.6577 31.4976 23.6577 28.0416C23.6577 26.3776 24.2336 25.8016 25.8656 25.8016C27.8496 25.8016 29.8337 25.8016 31.8177 25.8016C32.0737 25.8016 32.3616 25.8016 32.7136 25.8016C32.7136 24.5536 32.7136 23.4016 32.7136 22.2496C32.7136 20.6496 33.3217 20.0736 34.8897 20.0736C37.2257 20.0736 39.5617 20.0736 41.8977 20.0736C43.4017 20.0736 44.0096 20.6816 44.0096 22.1856C44.0096 24.9696 44.0096 27.7536 44.0096 30.5376C44.0096 30.8576 44.0096 31.1456 44.0096 31.5616ZM41.7377 22.4416C39.4337 22.4416 37.2257 22.4416 35.0177 22.4416C34.9857 22.5696 34.9856 22.6016 34.9856 22.6656C34.9856 28.1696 34.9857 42.1856 34.9536 47.6576C34.9536 48.1696 35.2097 48.2336 35.5936 48.2336C37.3536 48.2336 39.1136 48.2016 40.8417 48.2336C41.5136 48.2656 41.7377 48.0416 41.7377 47.3696C41.7057 42.1856 41.7377 28.4576 41.7377 23.2736C41.7377 23.0176 41.7377 22.7616 41.7377 22.4416ZM25.9617 48.1696C28.2337 48.1696 30.4097 48.1696 32.6177 48.1696C32.6177 44.2976 32.6177 31.9456 32.6177 28.1696C30.3457 28.1696 28.1697 28.1696 25.9617 28.1696C25.9617 31.9776 25.9617 44.2976 25.9617 48.1696ZM44.0417 48.1696C46.2817 48.1696 48.4897 48.1696 50.6977 48.1696C50.6977 46.2176 50.6977 35.7856 50.6977 33.8656C48.4577 33.8656 46.2496 33.8656 44.0417 33.8656C44.0417 35.8176 44.0417 46.2496 44.0417 48.1696Z" fill="#E0D128"/>
</g>
</g>
</g>
</g>
</g>
</g>
</g>
</g>
</svg>
